<svg width="192" height="192" viewBox="0 0 192 192" fill="none" xmlns="http://www.w3.org/2000/svg">
  <defs>
    <linearGradient id="lg192-bg" x1="0%" y1="0%" x2="100%" y2="100%">
      <stop offset="0%" style="stop-color:#667eea;stop-opacity:1" />
      <stop offset="100%" style="stop-color:#764ba2;stop-opacity:1" />
    </linearGradient>
    <linearGradient id="lg192-icon" x1="0%" y1="0%" x2="100%" y2="100%">
      <stop offset="0%" style="stop-color:#ffffff;stop-opacity:1" />
      <stop offset="100%" style="stop-color:#f8f9fa;stop-opacity:1" />
    </linearGradient>
    <filter id="shadow192" x="-20%" y="-20%" width="140%" height="140%">
      <feDropShadow dx="0" dy="6" stdDeviation="9" flood-color="#000000" flood-opacity="0.15"/>
    </filter>
  </defs>
  
  <!-- Main Circle -->
  <circle cx="96" cy="96" r="88" fill="url(#lg192-bg)" filter="url(#shadow192)"/>
  
  <!-- File Icon -->
  <rect x="48" y="36" width="60" height="78" rx="6" fill="url(#lg192-icon)"/>
  <path d="M90 36 L108 36 L108 54 L90 54 Z" fill="url(#lg192-bg)" opacity="0.3"/>
  <path d="M90 36 L90 54 L108 54 Z" fill="none" stroke="url(#lg192-icon)" stroke-width="3"/>
  
  <!-- Arrow -->
  <path d="M60 132 L84 132 M72 120 L84 132 L72 144" stroke="url(#lg192-icon)" stroke-width="7" stroke-linecap="round" stroke-linejoin="round" fill="none"/>
  
  <!-- Target File -->
  <rect x="96" y="126" width="48" height="54" rx="6" fill="url(#lg192-icon)" opacity="0.9"/>
  <path d="M126 126 L144 126 L144 144 L126 144 Z" fill="url(#lg192-bg)" opacity="0.3"/>
  
  <!-- Inner Lines -->
  <line x1="57" y1="60" x2="81" y2="60" stroke="url(#lg192-bg)" stroke-width="4" stroke-linecap="round" opacity="0.6"/>
  <line x1="57" y1="72" x2="75" y2="72" stroke="url(#lg192-bg)" stroke-width="4" stroke-linecap="round" opacity="0.6"/>
  <line x1="57" y1="84" x2="87" y2="84" stroke="url(#lg192-bg)" stroke-width="4" stroke-linecap="round" opacity="0.6"/>
  <line x1="57" y1="96" x2="69" y2="96" stroke="url(#lg192-bg)" stroke-width="4" stroke-linecap="round" opacity="0.6"/>
  
  <line x1="105" y1="150" x2="123" y2="150" stroke="url(#lg192-bg)" stroke-width="3" stroke-linecap="round" opacity="0.6"/>
  <line x1="105" y1="159" x2="117" y2="159" stroke="url(#lg192-bg)" stroke-width="3" stroke-linecap="round" opacity="0.6"/>
  <line x1="105" y1="168" x2="129" y2="168" stroke="url(#lg192-bg)" stroke-width="3" stroke-linecap="round" opacity="0.6"/>
</svg>