<svg width="64" height="64" viewBox="0 0 64 64" fill="none" xmlns="http://www.w3.org/2000/svg">
  <!-- Background Circle with Gradient -->
  <defs>
    <linearGradient id="bgGradient" x1="0%" y1="0%" x2="100%" y2="100%">
      <stop offset="0%" style="stop-color:#667eea;stop-opacity:1" />
      <stop offset="100%" style="stop-color:#764ba2;stop-opacity:1" />
    </linearGradient>
    <linearGradient id="iconGradient" x1="0%" y1="0%" x2="100%" y2="100%">
      <stop offset="0%" style="stop-color:#ffffff;stop-opacity:1" />
      <stop offset="100%" style="stop-color:#f8f9fa;stop-opacity:1" />
    </linearGradient>
    <filter id="shadow" x="-20%" y="-20%" width="140%" height="140%">
      <feDropShadow dx="0" dy="2" stdDeviation="3" flood-color="#000000" flood-opacity="0.1"/>
    </filter>
  </defs>
  
  <!-- Main Circle Background -->
  <circle cx="32" cy="32" r="30" fill="url(#bgGradient)" filter="url(#shadow)"/>
  
  <!-- File Icon Base -->
  <rect x="16" y="12" width="20" height="26" rx="2" fill="url(#iconGradient)" stroke="none"/>
  
  <!-- File Corner Fold -->
  <path d="M30 12 L36 12 L36 18 L30 18 Z" fill="url(#bgGradient)" opacity="0.3"/>
  <path d="M30 12 L30 18 L36 18 Z" fill="none" stroke="url(#iconGradient)" stroke-width="1"/>
  
  <!-- Conversion Arrow -->
  <path d="M20 44 L28 44 M24 40 L28 44 L24 48" stroke="url(#iconGradient)" stroke-width="2.5" stroke-linecap="round" stroke-linejoin="round" fill="none"/>
  
  <!-- Target File -->
  <rect x="32" y="42" width="16" height="18" rx="2" fill="url(#iconGradient)" opacity="0.9"/>
  <path d="M42 42 L48 42 L48 48 L42 48 Z" fill="url(#bgGradient)" opacity="0.3"/>
  
  <!-- Inner Elements -->
  <line x1="19" y1="20" x2="27" y2="20" stroke="url(#bgGradient)" stroke-width="1.5" stroke-linecap="round" opacity="0.6"/>
  <line x1="19" y1="24" x2="25" y2="24" stroke="url(#bgGradient)" stroke-width="1.5" stroke-linecap="round" opacity="0.6"/>
  <line x1="19" y1="28" x2="29" y2="28" stroke="url(#bgGradient)" stroke-width="1.5" stroke-linecap="round" opacity="0.6"/>
  
  <line x1="35" y1="50" x2="41" y2="50" stroke="url(#bgGradient)" stroke-width="1.2" stroke-linecap="round" opacity="0.6"/>
  <line x1="35" y1="53" x2="39" y2="53" stroke="url(#bgGradient)" stroke-width="1.2" stroke-linecap="round" opacity="0.6"/>
</svg>